<?xml version="1.0" encoding="utf-8"?>
<!-- Generator: Adobe Illustrator 19.0.0, SVG Export Plug-In . SVG Version: 6.00 Build 0)  -->
<svg version="1.1" id="Layer_1" xmlns="http://www.w3.org/2000/svg" xmlns:xlink="http://www.w3.org/1999/xlink" x="0px" y="0px"
	 viewBox="0 0 792 420" style="enable-background:new 0 0 792 420;" xml:space="preserve">
<style type="text/css">
	.st0{fill:#FBB040;}
	.st1{fill:#FFF200;}
	.st2{fill:#6D6E71;}
</style>
<g id="XMLID_1_">
	<path id="XMLID_2_" class="st0" d="M0,21.1h54.4c17.2,0,30.2,1.3,39,4c8.9,2.7,16,8.1,21.4,16.2c5.4,8.2,8.2,21.3,8.2,39.4
		c0,12.2-1.9,20.8-5.8,25.6c-3.8,4.8-11.4,8.5-22.7,11.1c12.6,2.9,21.1,7.6,25.6,14.2c4.5,6.6,6.7,16.7,6.7,30.4v19.4
		c0,14.2-1.6,24.7-4.9,31.5c-3.2,6.8-8.4,11.5-15.5,14s-21.6,3.8-43.5,3.8H0V21.1z M54.5,56.9v46.6c2.3-0.1,4.1-0.1,5.4-0.1
		c5.4,0,8.8-1.3,10.2-3.9c1.5-2.6,2.2-10.2,2.2-22.6c0-6.6-0.6-11.2-1.8-13.8c-1.2-2.6-2.8-4.3-4.7-5C63.9,57.4,60.1,57,54.5,56.9z
		 M54.5,136.2v58.6c7.7-0.3,12.6-1.5,14.7-3.6c2.1-2.2,3.2-7.5,3.2-15.9v-19.5c0-9-1-14.4-2.9-16.3S62.6,136.4,54.5,136.2z"/>
	<path id="XMLID_6_" class="st0" d="M240.6,21.1l31.2,209.6h-55.7l-2.9-37.7h-19.5l-3.3,37.7h-56.3l27.8-209.6H240.6z M211.8,155.8
		c-2.8-23.7-5.5-53.1-8.3-88c-5.6,40.1-9,69.5-10.5,88H211.8z"/>
	<path id="XMLID_9_" class="st0" d="M396.6,84.5h-50.6V69c0-7.2-0.7-11.9-1.9-13.9c-1.3-2-3.5-3-6.5-3c-3.3,0-5.8,1.3-7.4,4
		c-1.7,2.7-2.5,6.7-2.5,12.2c0,7,0.9,12.3,2.8,15.8c1.8,3.5,6.9,7.8,15.4,12.8c24.3,14.4,39.5,26.2,45.8,35.5
		c6.3,9.2,9.5,24.1,9.5,44.7c0,14.9-1.7,25.9-5.2,33c-3.5,7.1-10.2,13-20.3,17.8c-10,4.8-21.7,7.2-35,7.2c-14.6,0-27-2.8-37.4-8.3
		c-10.3-5.5-17.1-12.6-20.3-21.1c-3.2-8.5-4.8-20.7-4.8-36.4v-13.7h50.6v25.5c0,7.9,0.7,12.9,2.1,15.1c1.4,2.2,3.9,3.4,7.6,3.4
		s6.3-1.4,8.1-4.3c1.8-2.8,2.7-7.1,2.7-12.7c0-12.3-1.7-20.4-5-24.2c-3.5-3.8-12-10.1-25.5-19c-13.5-9-22.5-15.5-26.9-19.5
		c-4.4-4.1-8-9.7-10.9-16.8c-2.9-7.2-4.3-16.3-4.3-27.4c0-16.1,2-27.8,6.1-35.2c4.1-7.4,10.7-13.2,19.9-17.4s20.2-6.3,33.1-6.3
		c14.2,0,26.2,2.3,36.2,6.9c10,4.6,16.6,10.3,19.8,17.3c3.2,6.9,4.9,18.8,4.9,35.4V84.5z"/>
	<path id="XMLID_17_" class="st0" d="M418.2,21.1h90.9V63h-36.4v39.7h34v39.9h-34v46.1h40v41.9h-94.5V21.1z"/>
	<path id="XMLID_19_" class="st1" d="M652.4,76.7h-52.3c0-9.8-0.1-15.9-0.3-18.4c-0.2-2.5-1.3-4.7-3.1-6.4c-1.9-1.7-4.4-2.6-7.6-2.6
		c-2.7,0-4.9,0.8-6.6,2.5s-2.7,3.8-3,6.3c-0.3,2.6-0.4,7.8-0.4,15.7v33.4c2.7-5.6,6.6-9.8,11.8-12.6s11.6-4.2,19.2-4.2
		c9.6,0,18,2.6,25.4,7.8c7.3,5.2,12,11.4,14,18.6s3,17,3,29.4v16.7c0,14.7-0.6,25.6-1.7,32.8c-1.1,7.2-4.1,13.8-9,19.9
		c-4.9,6.1-11.6,10.8-20.1,14.2c-8.5,3.4-18.4,5-29.7,5c-14.1,0-25.6-1.9-34.6-5.8c-9-3.9-15.9-9.5-20.8-16.8
		c-4.9-7.3-7.7-15-8.5-23c-0.8-8-1.2-23.6-1.2-46.7v-29c0-24.9,0.4-41.6,1.1-50c0.7-8.4,3.7-16.4,9-23.9
		c5.3-7.5,12.5-13.1,21.6-16.9c9.1-3.8,19.6-5.6,31.5-5.6c14.7,0,26.7,2.4,36.1,7.1c9.4,4.7,16.1,11.4,20.2,20.1
		C650.4,52.7,652.4,63.6,652.4,76.7z M600.1,142.1c0-7.4-0.8-12.5-2.5-15.3c-1.6-2.8-4.3-4.1-8-4.1c-3.6,0-6.3,1.3-8,3.9
		c-1.7,2.6-2.5,7.8-2.5,15.5V180c0,9.2,0.8,15.3,2.4,18.1c1.6,2.9,4.3,4.3,8,4.3c2.2,0,4.6-1.1,7-3.3c2.4-2.2,3.6-8.1,3.6-17.8
		V142.1z"/>
	<path id="XMLID_22_" class="st1" d="M777.1,21.1v137H792v35.7h-14.9v36.9h-52.3v-36.9h-62.1V158l45.2-137H777.1z M724.8,158V68.8
		L701.7,158H724.8z"/>
</g>
<g id="XMLID_15_">
	<path id="XMLID_25_" class="st2" d="M1.9,309.8c4.2-0.6,9.3-1.1,14.8-1.1c10,0,17.1,2.3,21.9,6.7c4.8,4.4,7.6,10.7,7.6,19.4
		c0,8.8-2.7,16-7.8,21c-5,5-13.4,7.8-23.9,7.8c-5,0-9.1-0.2-12.7-0.6V309.8z M8.8,357.6c1.8,0.3,4.3,0.4,7.1,0.4
		c14.9,0,23-8.3,23-22.9c0.1-12.7-7.1-20.8-21.9-20.8c-3.6,0-6.3,0.3-8.2,0.7V357.6z"/>
	<path id="XMLID_28_" class="st2" d="M83.2,337.8h-21v19.5h23.4v5.9H55.2v-54h29.2v5.9H62.2V332h21V337.8z"/>
	<path id="XMLID_30_" class="st2" d="M132.3,361.3c-2.6,1.3-7.7,2.6-14.3,2.6c-15.2,0-26.7-9.6-26.7-27.3
		c0-16.9,11.5-28.4,28.2-28.4c6.7,0,11,1.4,12.8,2.4l-1.7,5.7c-2.6-1.3-6.4-2.2-10.9-2.2c-12.7,0-21.1,8.1-21.1,22.3
		c0,13.2,7.6,21.7,20.7,21.7c4.2,0,8.6-0.9,11.4-2.2L132.3,361.3z"/>
	<path id="XMLID_32_" class="st2" d="M185.5,335.5c0,18.6-11.3,28.4-25.1,28.4c-14.3,0-24.3-11.1-24.3-27.4
		c0-17.1,10.7-28.4,25.1-28.4C176,308.2,185.5,319.5,185.5,335.5z M143.6,336.4c0,11.5,6.2,21.9,17.2,21.9
		c11.1,0,17.3-10.2,17.3-22.4c0-10.7-5.6-21.9-17.2-21.9C149.4,313.9,143.6,324.6,143.6,336.4z"/>
	<path id="XMLID_35_" class="st2" d="M194.6,309.8c4.2-0.6,9.3-1.1,14.8-1.1c10,0,17.1,2.3,21.9,6.7c4.8,4.4,7.6,10.7,7.6,19.4
		c0,8.8-2.7,16-7.8,21c-5,5-13.4,7.8-23.9,7.8c-5,0-9.1-0.2-12.7-0.6V309.8z M201.6,357.6c1.8,0.3,4.3,0.4,7.1,0.4
		c14.9,0,23-8.3,23-22.9c0.1-12.7-7.1-20.8-21.9-20.8c-3.6,0-6.3,0.3-8.2,0.7V357.6z"/>
	<path id="XMLID_38_" class="st2" d="M275.9,337.8h-21v19.5h23.4v5.9h-30.4v-54h29.2v5.9h-22.2V332h21V337.8z"/>
	<path id="XMLID_40_" class="st2" d="M536.1,337.8h-21v19.5h23.4v5.9h-30.4v-54h29.2v5.9h-22.2V332h21V337.8z"/>
	<path id="XMLID_42_" class="st2" d="M547.5,363.1v-54h7.6l17.3,27.3c4,6.3,7.1,12,9.7,17.5l0.2-0.1c-0.6-7.2-0.8-13.8-0.8-22.2
		v-22.6h6.6v54H581l-17.1-27.4c-3.8-6-7.4-12.2-10.1-18l-0.2,0.1c0.4,6.8,0.6,13.3,0.6,22.3v23.1H547.5z"/>
	<path id="XMLID_44_" class="st2" d="M638,361.3c-2.6,1.3-7.7,2.6-14.3,2.6c-15.2,0-26.7-9.6-26.7-27.3c0-16.9,11.5-28.4,28.2-28.4
		c6.7,0,11,1.4,12.8,2.4l-1.7,5.7c-2.6-1.3-6.4-2.2-10.9-2.2c-12.7,0-21.1,8.1-21.1,22.3c0,13.2,7.6,21.7,20.7,21.7
		c4.2,0,8.6-0.9,11.4-2.2L638,361.3z"/>
	<path id="XMLID_46_" class="st2" d="M691.2,335.5c0,18.6-11.3,28.4-25.1,28.4c-14.3,0-24.3-11.1-24.3-27.4
		c0-17.1,10.7-28.4,25.1-28.4C681.6,308.2,691.2,319.5,691.2,335.5z M649.3,336.4c0,11.5,6.2,21.9,17.2,21.9
		c11.1,0,17.3-10.2,17.3-22.4c0-10.7-5.6-21.9-17.2-21.9C655,313.9,649.3,324.6,649.3,336.4z"/>
	<path id="XMLID_49_" class="st2" d="M700.2,309.8c4.2-0.6,9.3-1.1,14.8-1.1c10,0,17.1,2.3,21.9,6.7c4.8,4.4,7.6,10.7,7.6,19.4
		c0,8.8-2.7,16-7.8,21c-5,5-13.4,7.8-23.9,7.8c-5,0-9.1-0.2-12.7-0.6V309.8z M707.2,357.6c1.8,0.3,4.3,0.4,7.1,0.4
		c14.9,0,23-8.3,23-22.9c0.1-12.7-7.1-20.8-21.9-20.8c-3.6,0-6.3,0.3-8.2,0.7V357.6z"/>
	<path id="XMLID_52_" class="st2" d="M781.5,337.8h-21v19.5h23.4v5.9h-30.4v-54h29.2v5.9h-22.2V332h21V337.8z"/>
</g>
<g id="XMLID_10_">
	<path id="XMLID_13_" class="st2" d="M325.6,287.3c6.1,3.6,11.1,6.6,16.7,9.9c-11.3,19.2-13.6,39.2-4.4,59.6
		c9,20,25.3,31.5,45.9,37.6c-25.5-2.7-45.2-14.8-57.3-37.5C314.5,334.3,314.9,311.2,325.6,287.3z"/>
	<path id="XMLID_12_" class="st2" d="M394.7,404.4c0-6.8,0-12.7,0-18.6c46.3-0.3,73.7-40.5,64.2-82.3c9.5,22.5,8.1,44.6-4.7,65.4
		C440.8,390.7,420.6,402,394.7,404.4z"/>
	<path id="XMLID_11_" class="st2" d="M342.5,281.1c24.6-39.9,95.2-36.6,118.4,5.8c-5.3,3.1-10.6,6.2-16,9.3
		C421.8,255.7,373.5,252.4,342.5,281.1z"/>
</g>
</svg>
