<svg
        xmlns="http://www.w3.org/2000/svg"
        xmlns:xlink="http://www.w3.org/1999/xlink"
        width="12px" height="16px">
    <path fill-rule="evenodd"  opacity="0.4" fill="rgb(53, 61, 76)"
          d="M12.000,6.000 L12.000,15.000 C12.000,15.552 11.552,16.000 11.000,16.000 L0.999,16.000 C0.448,16.000 -0.001,15.552 -0.001,15.000 L-0.001,1.000 C-0.001,0.448 0.448,-0.000 0.999,-0.000 L11.000,-0.000 L11.000,-0.000 L5.999,-0.000 C9.314,-0.000 12.000,2.686 12.000,6.000 ZM8.000,2.546 L8.000,4.000 L9.444,4.000 C9.096,3.399 8.597,2.898 8.000,2.546 ZM10.000,6.000 L10.000,6.000 L7.000,6.000 C6.447,6.000 5.999,5.552 5.999,5.000 L5.999,2.000 L2.000,2.000 L2.000,14.000 L10.000,14.000 L10.000,6.000 Z"/>
</svg>
