<svg xmlns="http://www.w3.org/2000/svg" width="16" height="14" viewBox="0 0 16 14">
  <metadata><?xpacket begin="﻿" id="W5M0MpCehiHzreSzNTczkc9d"?>
<x:xmpmeta xmlns:x="adobe:ns:meta/" x:xmptk="Adobe XMP Core 5.6-c138 79.159824, 2016/09/14-01:09:01        ">
   <rdf:RDF xmlns:rdf="http://www.w3.org/1999/02/22-rdf-syntax-ns#">
      <rdf:Description rdf:about=""/>
   </rdf:RDF>
</x:xmpmeta>
                                                                                                    
                                                                                                    
                                                                                                    
                                                                                                    
                                                                                                    
                                                                                                    
                                                                                                    
                                                                                                    
                                                                                                    
                                                                                                    
                                                                                                    
                                                                                                    
                                                                                                    
                                                                                                    
                                                                                                    
                                                                                                    
                                                                                                    
                                                                                                    
                                                                                                    
                                                                                                    
                           
<?xpacket end="w"?></metadata>
<defs>
    <style>
      .cls-1 {
        fill: #adb1b7;
        fill-rule: evenodd;
      }
    </style>
  </defs>
  <path id="Shape_134_copy_5" data-name="Shape 134 copy 5" class="cls-1" d="M1273,566.983v0.034a0.984,0.984,0,0,0,.98.983h0.04a0.984,0.984,0,0,0,.98-0.983v-0.034a0.984,0.984,0,0,0-.98-0.983h-0.04A0.984,0.984,0,0,0,1273,566.983Zm-1,.017a2,2,0,0,0-2-2,1.976,1.976,0,0,0-1.72,1h-8.3a0.984,0.984,0,0,0-.98.983v0.034a0.984,0.984,0,0,0,.98.983h8.3a1.978,1.978,0,0,0,1.72,1A2,2,0,0,0,1272,567Zm1,9.983v0.034a0.983,0.983,0,0,0,.98.982h0.04a0.983,0.983,0,0,0,.98-0.982v-0.034a0.984,0.984,0,0,0-.98-0.983h-0.04A0.984,0.984,0,0,0,1273,576.983Zm-1,.017a2,2,0,0,0-2-2,1.978,1.978,0,0,0-1.72,1h-8.3a0.984,0.984,0,0,0-.98.983v0.034a0.983,0.983,0,0,0,.98.982h8.3a1.976,1.976,0,0,0,1.72,1A2,2,0,0,0,1272,577Zm-11-4.983v-0.034a0.984,0.984,0,0,0-.98-0.983h-0.04a0.984,0.984,0,0,0-.98.983v0.034a0.983,0.983,0,0,0,.98.982h0.04A0.983,0.983,0,0,0,1261,572.017Zm4.72,0.982h8.3a0.983,0.983,0,0,0,.98-0.982v-0.034a0.984,0.984,0,0,0-.98-0.983h-8.3A2,2,0,1,0,1265.72,573Z" transform="translate(-1259 -565)"/>
</svg>
