<svg xmlns="http://www.w3.org/2000/svg" width="16" height="15" viewBox="0 0 16 15">
  <metadata><?xpacket begin="﻿" id="W5M0MpCehiHzreSzNTczkc9d"?>
<x:xmpmeta xmlns:x="adobe:ns:meta/" x:xmptk="Adobe XMP Core 5.6-c138 79.159824, 2016/09/14-01:09:01        ">
   <rdf:RDF xmlns:rdf="http://www.w3.org/1999/02/22-rdf-syntax-ns#">
      <rdf:Description rdf:about=""/>
   </rdf:RDF>
</x:xmpmeta>
                                                                                                    
                                                                                                    
                                                                                                    
                                                                                                    
                                                                                                    
                                                                                                    
                                                                                                    
                                                                                                    
                                                                                                    
                                                                                                    
                                                                                                    
                                                                                                    
                                                                                                    
                                                                                                    
                                                                                                    
                                                                                                    
                                                                                                    
                                                                                                    
                                                                                                    
                                                                                                    
                           
<?xpacket end="w"?></metadata>
<defs>
    <style>
      .cls-1 {
        fill: #adb1b7;
        fill-rule: evenodd;
      }
    </style>
  </defs>
  <path id="Shape_81_copy_22" data-name="Shape 81 copy 22" class="cls-1" d="M1447.99,573v4h-2v-4h2m-1-9a1,1,0,0,0-.58.187l-7.01,5a1,1,0,0,0-.23,1.395,1.018,1.018,0,0,0,.82.418,1,1,0,0,0,.58-0.187l0.42-.3V578a1,1,0,0,0,1,1H1452a1,1,0,0,0,1-1v-7.487l0.42,0.3a0.969,0.969,0,0,0,.58.187,0.986,0.986,0,0,0,.81-0.418,1,1,0,0,0-.23-1.395l-7-5a1.027,1.027,0,0,0-.59-0.187h0Zm-4,13v-7.915l4-2.857,4.01,2.857V577h-1v-5a1,1,0,0,0-1.01-1h-4a1,1,0,0,0-1,1v5h-1Z" transform="translate(-1439 -564)"/>
</svg>
