<svg xmlns="http://www.w3.org/2000/svg" width="24" height="24" viewBox="0 0 24 24">
  <metadata><?xpacket begin="﻿" id="W5M0MpCehiHzreSzNTczkc9d"?>
<x:xmpmeta xmlns:x="adobe:ns:meta/" x:xmptk="Adobe XMP Core 5.6-c138 79.159824, 2016/09/14-01:09:01        ">
   <rdf:RDF xmlns:rdf="http://www.w3.org/1999/02/22-rdf-syntax-ns#">
      <rdf:Description rdf:about=""/>
   </rdf:RDF>
</x:xmpmeta>
                                                                                                    
                                                                                                    
                                                                                                    
                                                                                                    
                                                                                                    
                                                                                                    
                                                                                                    
                                                                                                    
                                                                                                    
                                                                                                    
                                                                                                    
                                                                                                    
                                                                                                    
                                                                                                    
                                                                                                    
                                                                                                    
                                                                                                    
                                                                                                    
                                                                                                    
                                                                                                    
                           
<?xpacket end="w"?></metadata>
<defs>
    <style>
      .cls-1 {
        fill: #353d4c;
        fill-rule: evenodd;
        opacity: 0.4;
      }
    </style>
  </defs>
  <path id="Shape_1_copy_2" data-name="Shape 1 copy 2" class="cls-1" d="M1451.4,2729.01v-10.12h-3.21v10.12h3.21Zm-1.6-11.5a1.751,1.751,0,1,0,.02-3.5A1.916,1.916,0,0,0,1448,2716a1.521,1.521,0,0,0,1.77,1.51h0.03Zm3.38,11.5h3.22v-5.65a2.263,2.263,0,0,1,.11-0.82,1.759,1.759,0,0,1,1.65-1.23c1.16,0,1.63.93,1.63,2.29v5.41H1463v-5.8c0-3.11-1.58-4.56-3.7-4.56a3.181,3.181,0,0,0-2.92,1.71h0.02v-1.47h-3.22c0.05,0.95,0,10.12,0,10.12h0ZM1445,2710h20a2.006,2.006,0,0,1,2,2v20a2,2,0,0,1-2,2h-20a2,2,0,0,1-2-2v-20A2.006,2.006,0,0,1,1445,2710Z" transform="translate(-1443 -2710)"/>
</svg>
