<svg xmlns="http://www.w3.org/2000/svg" width="16" height="15" viewBox="0 0 16 15">
  <metadata><?xpacket begin="﻿" id="W5M0MpCehiHzreSzNTczkc9d"?>
<x:xmpmeta xmlns:x="adobe:ns:meta/" x:xmptk="Adobe XMP Core 5.6-c138 79.159824, 2016/09/14-01:09:01        ">
   <rdf:RDF xmlns:rdf="http://www.w3.org/1999/02/22-rdf-syntax-ns#">
      <rdf:Description rdf:about=""/>
   </rdf:RDF>
</x:xmpmeta>
                                                                                                    
                                                                                                    
                                                                                                    
                                                                                                    
                                                                                                    
                                                                                                    
                                                                                                    
                                                                                                    
                                                                                                    
                                                                                                    
                                                                                                    
                                                                                                    
                                                                                                    
                                                                                                    
                                                                                                    
                                                                                                    
                                                                                                    
                                                                                                    
                                                                                                    
                                                                                                    
                           
<?xpacket end="w"?></metadata>
<defs>
    <style>
      .cls-1 {
        fill: #fff;
        fill-rule: evenodd;
      }
    </style>
  </defs>
  <path id="Shape_1_copy_4" data-name="Shape 1 copy 4" class="cls-1" d="M1305.43,621.794h3.11v10.191h-3.11V621.794Zm11.58-.089a3.191,3.191,0,0,0-3.11,1.7v-1.61h-3.5c0.04,0.85,0,10.191,0,10.191h3.5v-5.5a2.464,2.464,0,0,1,.09-0.849,1.769,1.769,0,0,1,1.69-1.25c1.21,0,1.77.938,1.77,2.323v5.274h3.54v-5.677C1320.95,623.18,1319.22,621.705,1317.01,621.705Zm-10.11-4.693a1.753,1.753,0,0,0-1.9,1.788,1.731,1.731,0,0,0,1.86,1.744h0.04A1.771,1.771,0,1,0,1306.9,617.012Z" transform="translate(-1305 -617)"/>
</svg>
