<svg xmlns="http://www.w3.org/2000/svg" width="15.88" height="15.937" viewBox="0 0 15.88 15.937">
  <metadata><?xpacket begin="﻿" id="W5M0MpCehiHzreSzNTczkc9d"?>
<x:xmpmeta xmlns:x="adobe:ns:meta/" x:xmptk="Adobe XMP Core 5.6-c138 79.159824, 2016/09/14-01:09:01        ">
   <rdf:RDF xmlns:rdf="http://www.w3.org/1999/02/22-rdf-syntax-ns#">
      <rdf:Description rdf:about=""/>
   </rdf:RDF>
</x:xmpmeta>
                                                                                                    
                                                                                                    
                                                                                                    
                                                                                                    
                                                                                                    
                                                                                                    
                                                                                                    
                                                                                                    
                                                                                                    
                                                                                                    
                                                                                                    
                                                                                                    
                                                                                                    
                                                                                                    
                                                                                                    
                                                                                                    
                                                                                                    
                                                                                                    
                                                                                                    
                                                                                                    
                           
<?xpacket end="w"?></metadata>
<defs>
    <style>
      .cls-1 {
        fill: #adb1b7;
        fill-rule: evenodd;
      }
    </style>
  </defs>
  <path id="link_copy_2" data-name="link copy 2" class="cls-1" d="M1546.02,569.187l-2.12,2.121a1,1,0,0,1-1.41-1.414l2.12-2.121a1,1,0,1,0-1.42-1.415l-4.24,4.244a9.847,9.847,0,0,0-.71.706,1,1,0,0,1-1.41,1.415,2.111,2.111,0,0,1,0-2.829l4.95-4.949A3,3,0,1,1,1546.02,569.187Zm-12.73,7.071a1.011,1.011,0,0,0,0,1.415,0.978,0.978,0,0,0,1.42,0l4.24-4.243a4.608,4.608,0,0,0,.71-0.707,1,1,0,0,1,0-1.415,0.977,0.977,0,0,1,1.41,0,2.2,2.2,0,0,1,0,2.829l-4.95,4.95a2.911,2.911,0,0,1-4.24,0,3.031,3.031,0,0,1,0-4.243l2.12-2.121a0.965,0.965,0,0,1,1.41,0,1.01,1.01,0,0,1,0,1.414Z" transform="translate(-1531.03 -564.094)"/>
</svg>
