<svg xmlns="http://www.w3.org/2000/svg" width="16" height="16" viewBox="0 0 16 16">
  <metadata><?xpacket begin="﻿" id="W5M0MpCehiHzreSzNTczkc9d"?>
<x:xmpmeta xmlns:x="adobe:ns:meta/" x:xmptk="Adobe XMP Core 5.6-c138 79.159824, 2016/09/14-01:09:01        ">
   <rdf:RDF xmlns:rdf="http://www.w3.org/1999/02/22-rdf-syntax-ns#">
      <rdf:Description rdf:about=""/>
   </rdf:RDF>
</x:xmpmeta>
                                                                                                    
                                                                                                    
                                                                                                    
                                                                                                    
                                                                                                    
                                                                                                    
                                                                                                    
                                                                                                    
                                                                                                    
                                                                                                    
                                                                                                    
                                                                                                    
                                                                                                    
                                                                                                    
                                                                                                    
                                                                                                    
                                                                                                    
                                                                                                    
                                                                                                    
                                                                                                    
                           
<?xpacket end="w"?></metadata>
<defs>
    <style>
      .cls-1 {
        fill: #adb1b7;
        fill-rule: evenodd;
      }
    </style>
  </defs>
  <path id="Shape_74_copy_5" data-name="Shape 74 copy 5" class="cls-1" d="M1173,564h-5a1,1,0,0,0-1,1v5a1,1,0,0,0,1,1h5a1,1,0,0,0,1-1v-5A1,1,0,0,0,1173,564Zm-1,5h-3v-3h3v3Zm1,4h-5a1,1,0,0,0-1,1v5a1,1,0,0,0,1,1h5a1,1,0,0,0,1-1v-5A1,1,0,0,0,1173,573Zm-1,5h-3v-3h3v3Zm5-11h5a1,1,0,0,0,0-2h-5A1,1,0,0,0,1177,567Zm5,2h-5a1,1,0,0,0,0,2h5A1,1,0,0,0,1182,569Zm0,4h-5a1,1,0,0,0,0,2h5A1,1,0,0,0,1182,573Zm0,4h-5a1,1,0,0,0,0,2h5A1,1,0,0,0,1182,577Z" transform="translate(-1167 -564)"/>
</svg>
