<svg xmlns="http://www.w3.org/2000/svg" width="14" height="15.938" viewBox="0 0 14 15.938">
  <metadata><?xpacket begin="﻿" id="W5M0MpCehiHzreSzNTczkc9d"?>
<x:xmpmeta xmlns:x="adobe:ns:meta/" x:xmptk="Adobe XMP Core 5.6-c138 79.159824, 2016/09/14-01:09:01        ">
   <rdf:RDF xmlns:rdf="http://www.w3.org/1999/02/22-rdf-syntax-ns#">
      <rdf:Description rdf:about=""/>
   </rdf:RDF>
</x:xmpmeta>
                                                                                                    
                                                                                                    
                                                                                                    
                                                                                                    
                                                                                                    
                                                                                                    
                                                                                                    
                                                                                                    
                                                                                                    
                                                                                                    
                                                                                                    
                                                                                                    
                                                                                                    
                                                                                                    
                                                                                                    
                                                                                                    
                                                                                                    
                                                                                                    
                                                                                                    
                                                                                                    
                           
<?xpacket end="w"?></metadata>
<defs>
    <style>
      .cls-1 {
        fill: #adb1b7;
        fill-rule: evenodd;
      }
    </style>
  </defs>
  <path id="Shape_281_copy_2" data-name="Shape 281 copy 2" class="cls-1" d="M1631,572.059v-0.473l4.51-2.7a0.991,0.991,0,0,0,0-1.71l-5-2.992a1,1,0,0,0-1.51.855v7.022c-3.48.261-6,1.869-6,3.949,0,2.273,3.01,3.988,7,3.988s7-1.715,7-3.988C1637,573.928,1634.48,572.321,1631,572.059Zm0-5.26,2.06,1.23-2.06,1.23V566.8Zm-1,11.2c-3.05,0-5-1.181-5-1.994,0-.721,1.53-1.725,4-1.947v1.947a1,1,0,0,0,2,0v-1.947c2.47,0.222,4,1.226,4,1.947C1635,576.821,1633.05,578,1630,578Z" transform="translate(-1623 -564.062)"/>
</svg>
