<svg
        xmlns="http://www.w3.org/2000/svg"
        xmlns:xlink="http://www.w3.org/1999/xlink"
        width="55px" height="41px">
    <path fill-rule="evenodd"  fill="rgb(255, 255, 255)"
          d="M54.952,1.158 C54.939,1.236 54.917,1.309 54.886,1.382 C54.875,1.407 54.876,1.433 54.864,1.458 L34.261,40.477 C34.098,40.786 33.785,40.988 33.435,41.007 C33.416,41.008 33.396,41.009 33.378,41.009 C33.048,41.009 32.741,40.847 32.553,40.575 L26.665,31.976 L19.153,36.222 C18.999,36.308 18.828,36.351 18.661,36.351 C18.451,36.351 18.241,36.285 18.066,36.154 C17.750,35.920 17.599,35.521 17.685,35.136 L20.391,22.815 L20.383,22.803 L0.696,16.503 C0.274,16.367 -0.008,15.972 0.001,15.529 C0.011,15.086 0.310,14.703 0.735,14.586 L53.682,0.036 C53.685,0.035 53.687,0.034 53.690,0.033 L53.716,0.026 C53.798,0.003 53.880,0.005 53.963,0.004 C53.999,0.003 54.034,-0.009 54.071,-0.006 C54.196,0.005 54.316,0.044 54.427,0.099 C54.433,0.103 54.441,0.102 54.447,0.105 C54.478,0.122 54.496,0.149 54.524,0.168 C54.595,0.215 54.663,0.265 54.721,0.330 C54.756,0.369 54.780,0.414 54.808,0.458 C54.836,0.501 54.873,0.536 54.895,0.584 C54.904,0.605 54.902,0.627 54.910,0.648 C54.928,0.698 54.936,0.748 54.947,0.800 C54.961,0.872 54.971,0.941 54.970,1.013 C54.969,1.063 54.961,1.109 54.952,1.158 ZM20.118,33.378 L25.529,30.318 L21.941,25.078 L20.118,33.378 ZM4.510,15.623 L20.874,20.860 L47.826,3.718 L4.510,15.623 ZM22.581,22.145 C22.579,22.153 22.582,22.161 22.580,22.170 L22.530,22.398 L33.266,38.077 L51.335,3.858 L22.581,22.145 Z"/>
</svg>