<svg
        xmlns="http://www.w3.org/2000/svg"
        xmlns:xlink="http://www.w3.org/1999/xlink"
        width="16px" height="16px">
    <path fill-rule="evenodd"  opacity="0.302" fill="rgb(51, 61, 76)"
          d="M15.718,15.718 C15.327,16.108 14.694,16.108 14.303,15.718 L11.154,12.568 C8.412,14.618 4.523,14.424 2.033,11.932 C-0.701,9.198 -0.701,4.766 2.033,2.033 C4.766,-0.701 9.198,-0.701 11.932,2.033 C14.423,4.524 14.617,8.412 12.568,11.154 L15.718,14.303 C16.108,14.694 16.108,15.327 15.718,15.718 ZM10.518,3.447 C8.566,1.494 5.400,1.494 3.447,3.447 C1.494,5.399 1.494,8.565 3.447,10.518 C5.400,12.471 8.566,12.471 10.518,10.518 C12.470,8.565 12.470,5.399 10.518,3.447 Z"/>
</svg>