<svg
        xmlns="http://www.w3.org/2000/svg"
        xmlns:xlink="http://www.w3.org/1999/xlink"
        width="16px" height="16px">
    <path fill-rule="evenodd"  fill="rgb(51, 61, 76)"
          d="M15.000,16.000 L11.000,16.000 C10.448,16.000 10.000,15.552 10.000,15.000 C10.000,14.448 10.448,14.000 11.000,14.000 L14.000,14.000 L14.000,2.000 L11.000,2.000 C10.448,2.000 10.000,1.552 10.000,1.000 C10.000,0.448 10.448,0.000 11.000,0.000 L15.000,0.000 C15.552,0.000 16.000,0.448 16.000,1.000 L16.000,15.000 C16.000,15.552 15.552,16.000 15.000,16.000 ZM11.707,7.293 C11.888,7.474 12.000,7.724 12.000,8.000 C12.000,8.276 11.888,8.526 11.707,8.707 L11.707,8.707 L8.707,11.707 L8.707,11.707 C8.526,11.888 8.276,12.000 8.000,12.000 C7.448,12.000 7.000,11.552 7.000,11.000 C7.000,10.724 7.112,10.474 7.293,10.293 L7.293,10.293 L8.586,9.000 L1.000,9.000 C0.448,9.000 0.000,8.552 0.000,8.000 C0.000,7.448 0.448,7.000 1.000,7.000 L8.586,7.000 L7.293,5.707 L7.293,5.707 C7.112,5.526 7.000,5.276 7.000,5.000 C7.000,4.448 7.448,4.000 8.000,4.000 C8.276,4.000 8.526,4.112 8.707,4.293 L8.707,4.293 L11.707,7.293 L11.707,7.293 Z"/>
</svg>